<svg id="Layer_1" data-name="Layer 1" xmlns="http://www.w3.org/2000/svg" viewBox="0 0 671.52 499.87">
  <defs>
    <style>
      .cls-1 {
        stroke: #000;
        stroke-miterlimit: 10;
      }
    </style>
  </defs>
  <title>bug</title>
  <path class="cls-1" d="M361,584l23-45,7-51c8.28-28.46,28.53-58.31,56-89l13-52c5.52-10.74,11.59-9.26,18,0l14.5,14.5,14,10c-16.09,19.69-26.3,43.13-28,72l-15,73,25-79c10.91-25.2,21.59-41.25,32-47l38,35,8,4,26,41,33,36c11.63,4.33,17.79-.28,19-13l24-75,17-35,18-14h44c9.56-2.81,18.38-2.73,26,2,2.71,5.46,6.51,9,13,8,5.22,1.42,8.76,10.78,10,31l7,68c.84,7.67,5.71,9.8,12,10,2.92,13.43,7.55,22.2,14,26h11c15-27,26.74-54.85,34-84,3.64-15.13,8.35-27.66,16-33,12.46,24.41,22.37,50.11,28,78l7,10,10,39,9,73,3-28c-3-36.34-12-85.55-34-163l9-1,25,20c6.27,3.14,12.32,2.66,18-4l19-35c-4.15-6-9.51-.62-15,6l-5,7-17,1-37-33v-15c-5-14.56-16.07-21.56-34-20l-5-4v-9c-1-7.21-5.36-7.92-11-6v-9l19-7-1-5-15,3-18-9,27-19,1,8c16.55-7.72,33.44-12.83,51-13l79,27,5,23c5.49-13.45,12.72-24.67,23-32-1.33-9.74-16.68-13.65-31-18l-60-22-19-17c-2.47-3.57-6.19-5.31-12-4v-19c-13.8-14.93-32.54-26.41-54-36l-10-7,37-27h33c-7.09-7.21-22.8-7.92-42-6l31-17h36v-5h-62c-35.87,12.09-58.94,22.31-58,29v10l-9,3,1,27,31,30,1,13c-31.6,3.64-60.76,4.82-86,2l-24-18c-8.83,9.59-18.45,15.16-29,16h-27c-9.69-8-19.35-6-29,0l-126,3-17,1c36.36,29.69,75.33,52.62,118,66h14c20.21,9.36,36.33,19.69,44,32h13v13c-21.34,19-27.71,36.86-25,54l-29,86c-7.72-.8-11.84-4.29-13-10l-32-83-3-21c-1.92-8.83-9.82-15.11-21-20-8-20.8-20.12-31.32-35-35-8.16,1-13,3.8-12,10l-27-17c-14.64-9-27.8-3.65-40,11l-2,7c-14.23-10.12-20,4-21,32-24.44,48.8-42.44,93.55-52,133l-10,63Z" transform="translate(-360.52 -102)"/>
</svg>
